<svg width="50" height="50" viewBox="0 0 50 50" fill="none" xmlns="http://www.w3.org/2000/svg">
<rect x="5.83398" y="9.62183" width="36.6667" height="30.9467" fill="white"/>
<rect x="9" y="38" width="12" height="6" fill="white"/>
<rect x="18" y="22.51" width="14" height="27" fill="white"/>
<path fill-rule="evenodd" clip-rule="evenodd" d="M25 0.529785C11.1875 0.529785 0 11.7584 0 25.6217C0 36.7248 7.15625 46.1029 17.0937 49.4276C18.3437 49.6472 18.8125 48.8944 18.8125 48.2357C18.8125 47.6398 18.7812 45.6638 18.7812 43.5624C12.5 44.7229 10.875 42.0255 10.375 40.6141C10.0937 39.8927 8.875 37.6658 7.8125 37.0698C6.9375 36.5994 5.6875 35.4389 7.78125 35.4075C9.75 35.3761 11.1562 37.2267 11.625 37.9794C13.875 41.7746 17.4687 40.7082 18.9062 40.0495C19.125 38.4185 19.7812 37.3208 20.5 36.6935C14.9375 36.0662 9.125 33.902 9.125 24.3043C9.125 21.5756 10.0937 19.3173 11.6875 17.5609C11.4375 16.9336 10.5625 14.3617 11.9375 10.9116C11.9375 10.9116 14.0312 10.2529 18.8125 13.4835C20.8125 12.9189 22.9375 12.6366 25.0625 12.6366C27.1875 12.6366 29.3125 12.9189 31.3125 13.4835C36.0937 10.2215 38.1875 10.9116 38.1875 10.9116C39.5625 14.3617 38.6875 16.9336 38.4375 17.5609C40.0313 19.3173 41 21.5442 41 24.3043C41 33.9334 35.1562 36.0662 29.5937 36.6935C30.5 37.4776 31.2812 38.9831 31.2812 41.3355C31.2812 44.6915 31.25 47.3889 31.25 48.2357C31.25 48.8944 31.7187 49.6785 32.9687 49.4276C37.9316 47.7459 42.2441 44.5445 45.2993 40.274C48.3545 36.0035 49.9985 30.879 50 25.6217C50 11.7584 38.8125 0.529785 25 0.529785Z" fill="black"/>
</svg>
