<svg width="44" height="42" viewBox="0 0 44 42" fill="none" xmlns="http://www.w3.org/2000/svg">
<rect x="4" y="3" width="36" height="35" fill="white"/>
<path d="M36.8773 35.7689H30.6081V26.0478C30.6081 23.7297 30.5663 20.7456 27.3475 20.7456C24.0823 20.7456 23.5827 23.2712 23.5827 25.879V35.7683H17.3135V15.7777H23.3319V18.5096H23.4161C24.0184 17.4899 24.8888 16.6511 25.9345 16.0825C26.9802 15.5138 28.1621 15.2366 29.3542 15.2805C35.7083 15.2805 36.8799 19.4187 36.8799 24.8024L36.8773 35.7689ZM10.2397 13.0451C9.52019 13.0453 8.81675 12.8341 8.2184 12.4384C7.62004 12.0427 7.15367 11.4802 6.8782 10.822C6.60272 10.1638 6.53052 9.43953 6.67077 8.74074C6.81102 8.04194 7.15741 7.40002 7.66612 6.89615C8.17482 6.39227 8.82301 6.04908 9.5287 5.90996C10.2344 5.77084 10.9659 5.84204 11.6307 6.11457C12.2955 6.3871 12.8638 6.84871 13.2637 7.44102C13.6635 8.03334 13.877 8.72977 13.8772 9.44223C13.8773 9.91528 13.7832 10.3837 13.6005 10.8208C13.4177 11.2579 13.1498 11.655 12.8121 11.9896C12.4743 12.3242 12.0733 12.5896 11.6319 12.7707C11.1906 12.9518 10.7175 13.045 10.2397 13.0451ZM13.3743 35.7689H7.09861V15.7777H13.3743V35.7689ZM40.0027 0.0760964H3.94836C3.13003 0.0669525 2.34147 0.37987 1.75603 0.946087C1.17059 1.5123 0.836159 2.28549 0.826172 3.09576V38.9431C0.835817 39.7538 1.17005 40.5275 1.75547 41.0943C2.34089 41.6611 3.12962 41.9746 3.94836 41.966H40.0027C40.8231 41.9762 41.614 41.6636 42.2017 41.0968C42.7895 40.53 43.1259 39.7554 43.1373 38.9431V3.09317C43.1256 2.2813 42.7889 1.50723 42.2011 0.941028C41.6134 0.374825 40.8227 0.0628014 40.0027 0.0735089" fill="#0A66C2"/>
</svg>
