<svg width="26" height="26" viewBox="0 0 26 26" fill="none" xmlns="http://www.w3.org/2000/svg">
<path fill-rule="evenodd" clip-rule="evenodd" d="M25.9395 12.8854C25.9395 19.7892 20.3432 25.3854 13.4395 25.3854C6.5357 25.3854 0.939453 19.7892 0.939453 12.8854C0.939453 5.98169 6.5357 0.385437 13.4395 0.385437C20.3432 0.385437 25.9395 5.98169 25.9395 12.8854Z" fill="#DA552F"/>
<path fill-rule="evenodd" clip-rule="evenodd" d="M15.1063 12.8854H11.5645V9.13544H15.1063C15.6036 9.13544 16.0805 9.33298 16.4322 9.68461C16.7838 10.0362 16.9813 10.5132 16.9813 11.0104C16.9813 11.5077 16.7838 11.9846 16.4322 12.3363C16.0805 12.6879 15.6036 12.8854 15.1063 12.8854ZM15.1063 6.63544H9.06445V19.1354H11.5645V15.3854H15.1063C16.2666 15.3854 17.3794 14.9245 18.1999 14.104C19.0204 13.2836 19.4813 12.1708 19.4813 11.0104C19.4813 9.85011 19.0204 8.73732 18.1999 7.91685C17.3794 7.09637 16.2666 6.63544 15.1063 6.63544Z" fill="white"/>
</svg>
